<svg xmlns="http://www.w3.org/2000/svg" viewBox="23.51 46.99 905.63 102.79" width="905.63" height="102.79">
<style>@keyframes tk-d0 { 0% { stroke-dashoffset:144.43 } 3.49%,92.43% { stroke-dashoffset:0 } 94.7%,100% { stroke-dashoffset:144.43 } } @keyframes tk-d1 { 0%,4.25% { stroke-dashoffset:49.89 } 5.36%,92.43% { stroke-dashoffset:0 } 94.7%,100% { stroke-dashoffset:49.89 } } @keyframes tk-d2 { 0%,6.5% { stroke-dashoffset:25.98 } 6.97%,92.43% { stroke-dashoffset:0 } 94.7%,100% { stroke-dashoffset:25.98 } } @keyframes tk-d3 { 0%,7.72% { stroke-dashoffset:73 } 9.41%,92.43% { stroke-dashoffset:0 } 94.7%,100% { stroke-dashoffset:73 } } @keyframes tk-d4 { 0%,10.55% { stroke-dashoffset:18.67 } 10.87%,92.43% { stroke-dashoffset:0 } 94.7%,100% { stroke-dashoffset:18.67 } } @keyframes tk-d5 { 0%,11.62% { stroke-dashoffset:33.44 } 12.28%,92.43% { stroke-dashoffset:0 } 94.7%,100% { stroke-dashoffset:33.44 } } @keyframes tk-d6 { 0%,13.42% { stroke-dashoffset:5.36 } 13.48%,92.43% { stroke-dashoffset:0 } 94.7%,100% { stroke-dashoffset:5.36 } } @keyframes tk-d7 { 0%,14.62% { stroke-dashoffset:52.98 } 15.8%,92.43% { stroke-dashoffset:0 } 94.7%,100% { stroke-dashoffset:52.98 } } @keyframes tk-d8 { 0%,16.56% { stroke-dashoffset:84.51 } 18.56%,92.43% { stroke-dashoffset:0 } 94.7%,100% { stroke-dashoffset:84.51 } } @keyframes tk-d9 { 0%,19.32% { stroke-dashoffset:120.52 } 22.22%,92.43% { stroke-dashoffset:0 } 94.7%,100% { stroke-dashoffset:120.52 } } @keyframes tk-d10 { 0%,22.98% { stroke-dashoffset:29.81 } 23.59%,92.43% { stroke-dashoffset:0 } 94.7%,100% { stroke-dashoffset:29.81 } } @keyframes tk-d11 { 0%,24.73% { stroke-dashoffset:10.88 } 24.84%,92.43% { stroke-dashoffset:0 } 94.7%,100% { stroke-dashoffset:10.88 } } @keyframes tk-d12 { 0%,24.35% { stroke-dashoffset:33.44 } 25.01%,92.43% { stroke-dashoffset:0 } 94.7%,100% { stroke-dashoffset:33.44 } } @keyframes tk-d13 { 0%,26.14% { stroke-dashoffset:5.36 } 26.2%,92.43% { stroke-dashoffset:0 } 94.7%,100% { stroke-dashoffset:5.36 } } @keyframes tk-d14 { 0%,27.34% { stroke-dashoffset:52.98 } 28.53%,92.43% { stroke-dashoffset:0 } 94.7%,100% { stroke-dashoffset:52.98 } } @keyframes tk-d15 { 0%,29.28% { stroke-dashoffset:127.88 } 32.37%,92.43% { stroke-dashoffset:0 } 94.7%,100% { stroke-dashoffset:127.88 } } @keyframes tk-d16 { 0%,33.5% { opacity:0 } 33.9%,100% { opacity:1 } } @keyframes tk-d17 { 0%,34.65% { opacity:0 } 35.05%,100% { opacity:1 } } @keyframes tk-d18 { 0%,36.66% { stroke-dashoffset:65.69 } 38.17%,92.43% { stroke-dashoffset:0 } 94.7%,100% { stroke-dashoffset:65.69 } } @keyframes tk-d19 { 0%,39.31% { stroke-dashoffset:33.48 } 39.98%,92.43% { stroke-dashoffset:0 } 94.7%,100% { stroke-dashoffset:33.48 } } @keyframes tk-d20 { 0%,41.12% { stroke-dashoffset:12.42 } 41.23%,92.43% { stroke-dashoffset:0 } 94.7%,100% { stroke-dashoffset:12.42 } } @keyframes tk-d21 { 0%,42.37% { opacity:0 } 42.77%,100% { opacity:1 } } @keyframes tk-d22 { 0%,43.14% { stroke-dashoffset:120.52 } 46.04%,92.43% { stroke-dashoffset:0 } 94.7%,100% { stroke-dashoffset:120.52 } } @keyframes tk-d23 { 0%,46.79% { stroke-dashoffset:94.02 } 49.03%,92.43% { stroke-dashoffset:0 } 94.7%,100% { stroke-dashoffset:94.02 } } @keyframes tk-d24 { 0%,50.16% { stroke-dashoffset:33.44 } 50.82%,92.43% { stroke-dashoffset:0 } 94.7%,100% { stroke-dashoffset:33.44 } } @keyframes tk-d25 { 0%,51.96% { stroke-dashoffset:5.36 } 52.02%,92.43% { stroke-dashoffset:0 } 94.7%,100% { stroke-dashoffset:5.36 } } @keyframes tk-d26 { 0%,53.15% { stroke-dashoffset:52.98 } 54.34%,92.43% { stroke-dashoffset:0 } 94.7%,100% { stroke-dashoffset:52.98 } } @keyframes tk-d27 { 0%,55.1% { stroke-dashoffset:73 } 56.79%,92.43% { stroke-dashoffset:0 } 94.7%,100% { stroke-dashoffset:73 } } @keyframes tk-d28 { 0%,57.93% { stroke-dashoffset:18.67 } 58.24%,92.43% { stroke-dashoffset:0 } 94.7%,100% { stroke-dashoffset:18.67 } } @keyframes tk-d29 { 0%,59% { stroke-dashoffset:56.55 } 60.25%,92.43% { stroke-dashoffset:0 } 94.7%,100% { stroke-dashoffset:56.55 } } @keyframes tk-d30 { 0%,61.39% { stroke-dashoffset:53.97 } 62.61%,92.43% { stroke-dashoffset:0 } 94.7%,100% { stroke-dashoffset:53.97 } } @keyframes tk-d31 { 0%,63.75% { stroke-dashoffset:28.24 } 64.28%,92.43% { stroke-dashoffset:0 } 94.7%,100% { stroke-dashoffset:28.24 } } @keyframes tk-d32 { 0%,65.04% { stroke-dashoffset:83.58 } 67%,92.43% { stroke-dashoffset:0 } 94.7%,100% { stroke-dashoffset:83.58 } } @keyframes tk-d33 { 0%,68.13% { stroke-dashoffset:52.15 } 69.28%,92.43% { stroke-dashoffset:0 } 94.7%,100% { stroke-dashoffset:52.15 } } @keyframes tk-d34 { 0%,70.03% { stroke-dashoffset:94.02 } 72.27%,92.43% { stroke-dashoffset:0 } 94.7%,100% { stroke-dashoffset:94.02 } } @keyframes tk-d35 { 0%,73.03% { stroke-dashoffset:49.89 } 74.14%,92.43% { stroke-dashoffset:0 } 94.7%,100% { stroke-dashoffset:49.89 } } @keyframes tk-d36 { 0%,75.27% { stroke-dashoffset:25.98 } 75.74%,92.43% { stroke-dashoffset:0 } 94.7%,100% { stroke-dashoffset:25.98 } } @keyframes tk-d37 { 0%,76.5% { stroke-dashoffset:87.45 } 78.57%,92.43% { stroke-dashoffset:0 } 94.7%,100% { stroke-dashoffset:87.45 } } @keyframes tk-d38 { 0%,79.33% { stroke-dashoffset:11.3 } 79.4%,92.43% { stroke-dashoffset:0 } 94.7%,100% { stroke-dashoffset:11.3 } } @keyframes tk-d39 { 0%,80.16% { stroke-dashoffset:11.3 } 80.23%,92.43% { stroke-dashoffset:0 } 94.7%,100% { stroke-dashoffset:11.3 } } @keyframes tk-d40 { 0%,80.99% { stroke-dashoffset:11.3 } 81.07%,92.43% { stroke-dashoffset:0 } 94.7%,100% { stroke-dashoffset:11.3 } } @keyframes tk-fade { 0%,92.43% { opacity:1 } 94.7%,100% { opacity:0 } } .tk-s0 { animation: tk-d0 3.6s infinite } .tk-s1 { animation: tk-d1 3.6s infinite } .tk-s2 { animation: tk-d2 3.6s infinite } .tk-s3 { animation: tk-d3 3.6s infinite } .tk-s4 { animation: tk-d4 3.6s infinite } .tk-s5 { animation: tk-d5 3.6s infinite } .tk-s6 { animation: tk-d6 3.6s infinite } .tk-s7 { animation: tk-d7 3.6s infinite } .tk-s8 { animation: tk-d8 3.6s infinite } .tk-s9 { animation: tk-d9 3.6s infinite } .tk-s10 { animation: tk-d10 3.6s infinite } .tk-s11 { animation: tk-d11 3.6s infinite } .tk-s12 { animation: tk-d12 3.6s infinite } .tk-s13 { animation: tk-d13 3.6s infinite } .tk-s14 { animation: tk-d14 3.6s infinite } .tk-s15 { animation: tk-d15 3.6s infinite } .tk-s16 { animation: tk-d16 3.6s infinite } .tk-s17 { animation: tk-d17 3.6s infinite } .tk-s18 { animation: tk-d18 3.6s infinite } .tk-s19 { animation: tk-d19 3.6s infinite } .tk-s20 { animation: tk-d20 3.6s infinite } .tk-s21 { animation: tk-d21 3.6s infinite } .tk-s22 { animation: tk-d22 3.6s infinite } .tk-s23 { animation: tk-d23 3.6s infinite } .tk-s24 { animation: tk-d24 3.6s infinite } .tk-s25 { animation: tk-d25 3.6s infinite } .tk-s26 { animation: tk-d26 3.6s infinite } .tk-s27 { animation: tk-d27 3.6s infinite } .tk-s28 { animation: tk-d28 3.6s infinite } .tk-s29 { animation: tk-d29 3.6s infinite } .tk-s30 { animation: tk-d30 3.6s infinite } .tk-s31 { animation: tk-d31 3.6s infinite } .tk-s32 { animation: tk-d32 3.6s infinite } .tk-s33 { animation: tk-d33 3.6s infinite } .tk-s34 { animation: tk-d34 3.6s infinite } .tk-s35 { animation: tk-d35 3.6s infinite } .tk-s36 { animation: tk-d36 3.6s infinite } .tk-s37 { animation: tk-d37 3.6s infinite } .tk-s38 { animation: tk-d38 3.6s infinite } .tk-s39 { animation: tk-d39 3.6s infinite } .tk-s40 { animation: tk-d40 3.6s infinite } .tk-grp { animation: tk-fade 3.6s infinite }</style>
<g class="tk-grp">
<path class="tk-s0" d="M 66.79 79.31 L 70.44 73.43 L 72.27 66.93 L 72.47 64.3 L 71.86 60.85 L 70.24 58.61 L 67.4 58.01 L 64.96 58.21 L 58.68 62.47 L 53.4 67.14 L 44.88 78.5 L 40.01 87.02 L 35.95 98.18 L 34.94 103.86 L 34.53 110.76 L 35.14 116.84 L 36.36 121.1 L 38.79 124.35 L 40.42 125.16 L 42.85 125.57 L 48.33 124.96 L 54.01 122.73 L 60.7 119.07 L 68.01 113.6" fill="none" stroke="#2b2620" stroke-width="6.04" stroke-linecap="round" stroke-linejoin="round" stroke-dasharray="144.43" stroke-dashoffset="144.43" />
<path class="tk-s1" d="M 81.3 116.99 L 81.09 115.45 L 82.84 108.23 L 84.29 104.62 L 85.22 103.59 L 89.45 102.04 L 92.02 99.46 L 94.09 97.81 L 98.62 94.72 L 102.34 92.55 L 106.15 91.21 L 107.7 91.42 L 109.97 92.45 L 111.2 92.55" fill="none" stroke="#2b2620" stroke-width="5.7" stroke-linecap="round" stroke-linejoin="round" stroke-dasharray="49.89" stroke-dashoffset="49.89" />
<path class="tk-s2" d="M 90.17 86.57 L 85.11 97.92 L 84.29 103.07 L 84.8 104" fill="none" stroke="#2b2620" stroke-width="7.27" stroke-linecap="round" stroke-linejoin="round" stroke-dasharray="25.98" stroke-dashoffset="25.98" />
<path class="tk-s3" d="M 124.88 89.11 L 124.68 90.44 L 122.12 95.46 L 120.17 100.07 L 118.53 104.98 L 117.92 108.16 L 117.71 112.66 L 118.02 113.89 L 119.35 115.63 L 120.48 116.15 L 121.61 116.25 L 125.39 115.43 L 127.03 114.61 L 130.51 111.85 L 132.05 110.21 L 135.23 108.98 L 136.35 105.5 L 138.6 100.38 L 139.83 96.79 L 140.24 93.92 L 141.16 91.77 L 141.37 89.73" fill="none" stroke="#2b2620" stroke-width="6.12" stroke-linecap="round" stroke-linejoin="round" stroke-dasharray="73" stroke-dashoffset="73" />
<path class="tk-s4" d="M 135.23 108.98 L 135.84 109.49 L 135.84 113.59 L 136.45 116.15 L 137.38 117.99 L 139.32 120.34" fill="none" stroke="#2b2620" stroke-width="6.03" stroke-linecap="round" stroke-linejoin="round" stroke-dasharray="18.67" stroke-dashoffset="18.67" />
<path class="tk-s5" d="M 161.82 89.91 L 162.22 91.83 L 162.12 92.95 L 161.41 94.97 L 158.68 100.34 L 157.47 107.42 L 155.64 109.65 L 154.63 111.68 L 154.94 114.11" fill="none" stroke="#2b2620" stroke-width="7.41" stroke-linecap="round" stroke-linejoin="round" stroke-dasharray="33.44" stroke-dashoffset="33.44" />
<path class="tk-s6" d="M 182.17 110.16 L 184.6 110.06" fill="none" stroke="#2b2620" stroke-width="2.93" stroke-linecap="round" stroke-linejoin="round" stroke-dasharray="5.36" stroke-dashoffset="5.36" />
<path class="tk-s7" d="M 157.36 107.63 L 163.34 106.01 L 175.28 98.01 L 178.42 97.3 L 180.65 97.91 L 181.76 99.02 L 182.17 100.14 L 182.47 104.79 L 181.86 109.04 L 182.37 113.09 L 182.88 114.31 L 183.69 115.42 L 184.8 116.33 L 183.99 115.62" fill="none" stroke="#2b2620" stroke-width="5.88" stroke-linecap="round" stroke-linejoin="round" stroke-dasharray="52.98" stroke-dashoffset="52.98" />
<path class="tk-s8" d="M 218.09 97.44 L 218.62 96.8 L 219.25 95.22 L 219.78 91.62 L 218.94 88.66 L 217.88 87.5 L 214.92 86.86 L 212.27 87.28 L 209.52 89.4 L 207.41 91.41 L 205.08 94.27 L 203.39 96.91 L 201.59 100.51 L 200 104.53 L 198.73 109.07 L 198.41 111.82 L 198.73 115 L 199.37 117.22 L 200.11 118.07 L 203.81 118.91 L 206.45 118.59 L 209.73 117.75 L 215.23 114.57 L 218.3 112.14 L 221.58 108.97 L 222.85 108.44 L 223.7 108.55" fill="none" stroke="#2b2620" stroke-width="5.4" stroke-linecap="round" stroke-linejoin="round" stroke-dasharray="84.51" stroke-dashoffset="84.51" />
<path class="tk-s9" d="M 250.04 60.05 L 250.21 63.02 L 248.39 67.15 L 237.17 97.86 L 235.35 104.29 L 234.69 110.24 L 233.7 113.21 L 235.18 110.73 L 238.65 109.41 L 243.77 104.29 L 250.21 99.01 L 256.15 95.38 L 259.95 94.88 L 261.93 96.04 L 262.76 99.18 L 261.77 109.25 L 262.26 112.38 L 264.41 113.71 L 268.21 113.87 L 268.87 113.54" fill="none" stroke="#2b2620" stroke-width="5.68" stroke-linecap="round" stroke-linejoin="round" stroke-dasharray="120.52" stroke-dashoffset="120.52" />
<path class="tk-s10" d="M 285.34 95.64 L 285.63 96.93 L 281.61 107.99 L 279.59 114.75 L 279.45 116.9 L 279.88 118.92" fill="none" stroke="#2b2620" stroke-width="5.45" stroke-linecap="round" stroke-linejoin="round" stroke-dasharray="29.81" stroke-dashoffset="29.81" />
<path class="tk-s11" d="M 291.81 72.79 L 291.81 74.23 L 289.94 76.67" fill="none" stroke="#2b2620" stroke-width="6.37" stroke-linecap="round" stroke-linejoin="round" stroke-dasharray="10.88" stroke-dashoffset="10.88" />
<path class="tk-s12" d="M 307.42 89.91 L 307.82 91.83 L 307.72 92.95 L 307.01 94.97 L 304.28 100.34 L 303.07 107.42 L 301.24 109.65 L 300.23 111.68 L 300.53 114.11" fill="none" stroke="#2b2620" stroke-width="7.41" stroke-linecap="round" stroke-linejoin="round" stroke-dasharray="33.44" stroke-dashoffset="33.44" />
<path class="tk-s13" d="M 327.77 110.16 L 330.2 110.06" fill="none" stroke="#2b2620" stroke-width="2.93" stroke-linecap="round" stroke-linejoin="round" stroke-dasharray="5.36" stroke-dashoffset="5.36" />
<path class="tk-s14" d="M 302.96 107.63 L 308.94 106.01 L 320.88 98.01 L 324.02 97.3 L 326.25 97.91 L 327.36 99.02 L 327.77 100.14 L 328.07 104.79 L 327.46 109.04 L 327.97 113.09 L 328.48 114.31 L 329.29 115.42 L 330.4 116.33 L 329.59 115.62" fill="none" stroke="#2b2620" stroke-width="5.88" stroke-linecap="round" stroke-linejoin="round" stroke-dasharray="52.98" stroke-dashoffset="52.98" />
<path class="tk-s15" d="M 338.95 130.7 L 340.72 134.23 L 343.13 137.13 L 344.1 137.77 L 348.28 138.9 L 349.56 138.73 L 350.69 138.09 L 352.94 135.68 L 355.67 129.89 L 361.13 111.57 L 361.62 108.04 L 361.13 105.95 L 364.03 97.91 L 364.83 94.37 L 363.38 89.39 L 361.78 87.78 L 359.53 87.3 L 356.95 87.46 L 354.7 88.59 L 349.88 92.77 L 347.15 96.3 L 345.06 100.48 L 343.94 105.62 L 343.94 107.71 L 344.58 110.61 L 345.86 111.89 L 348.44 112.38 L 350.2 112.21 L 353.58 110.77 L 357.44 107.55 L 361.13 105.95" fill="none" stroke="#2b2620" stroke-width="5.75" stroke-linecap="round" stroke-linejoin="round" stroke-dasharray="127.88" stroke-dashoffset="127.88" />
<circle class="tk-s16" cx="345.06" cy="111.41" r="2.88" fill="#2b2620" opacity="0" />
<circle class="tk-s17" cx="351.49" cy="137.29" r="2.88" fill="#2b2620" opacity="0" />
<path class="tk-s18" d="M 432.74 85 L 433.49 84.69 L 437.58 85.15 L 437.89 85.9 L 436.98 90.15 L 434.55 95.3 L 431.22 106.66 L 430.61 112.72 L 431.52 116.81 L 432.74 118.32 L 434.7 119.08 L 436.22 119.38 L 440.16 119.23 L 446.22 117.57 L 449.1 115.9 L 451.37 113.93" fill="none" stroke="#2b2620" stroke-width="5.64" stroke-linecap="round" stroke-linejoin="round" stroke-dasharray="65.69" stroke-dashoffset="65.69" />
<path class="tk-s19" d="M 447.73 70.76 L 443.04 78.63 L 442.13 83.94 L 442.73 84.54 L 451.98 84.09 L 454.1 84.39" fill="none" stroke="#2b2620" stroke-width="6.68" stroke-linecap="round" stroke-linejoin="round" stroke-dasharray="33.48" stroke-dashoffset="33.48" />
<path class="tk-s20" d="M 437.89 85.75 L 438.34 85.3 L 440.61 84.84 L 441.98 84.09" fill="none" stroke="#2b2620" stroke-width="7.9" stroke-linecap="round" stroke-linejoin="round" stroke-dasharray="12.42" stroke-dashoffset="12.42" />
<circle class="tk-s21" cx="432.89" cy="118.32" r="3.37" fill="#2b2620" opacity="0" />
<path class="tk-s22" d="M 478.74 60.05 L 478.91 63.02 L 477.09 67.15 L 465.87 97.86 L 464.05 104.29 L 463.39 110.24 L 462.4 113.21 L 463.89 110.73 L 467.35 109.41 L 472.47 104.29 L 478.91 99.01 L 484.85 95.38 L 488.65 94.88 L 490.63 96.04 L 491.46 99.18 L 490.47 109.25 L 490.96 112.38 L 493.11 113.71 L 496.91 113.87 L 497.57 113.54" fill="none" stroke="#2b2620" stroke-width="5.68" stroke-linecap="round" stroke-linejoin="round" stroke-dasharray="120.52" stroke-dashoffset="120.52" />
<path class="tk-s23" d="M 512.38 99.33 L 513.2 100.25 L 513.91 100.45 L 517.28 100.76 L 520.24 101.37 L 522.99 101.06 L 524.32 100.66 L 525.95 99.74 L 529.52 96.47 L 530.34 95.15 L 530.85 93.21 L 530.95 91.88 L 530.54 90.25 L 528.61 88.1 L 527.69 87.7 L 525.44 87.39 L 523.81 87.39 L 521.16 88.1 L 519.52 89.02 L 515.34 92.9 L 513.4 95.45 L 512.48 99.23 L 510.95 100.25 L 510.44 101.17 L 509.52 104.43 L 509.11 107.39 L 509.52 112.29 L 510.54 115.25 L 512.79 117.49 L 515.75 118.62 L 517.48 118.82 L 521.46 117.9 L 524.73 115.76 L 527.07 113.51 L 527.99 113.31" fill="none" stroke="#2b2620" stroke-width="5.4" stroke-linecap="round" stroke-linejoin="round" stroke-dasharray="94.02" stroke-dashoffset="94.02" />
<path class="tk-s24" d="M 599.92 89.91 L 600.32 91.83 L 600.22 92.95 L 599.51 94.97 L 596.78 100.34 L 595.57 107.42 L 593.74 109.65 L 592.73 111.68 L 593.04 114.11" fill="none" stroke="#2b2620" stroke-width="7.41" stroke-linecap="round" stroke-linejoin="round" stroke-dasharray="33.44" stroke-dashoffset="33.44" />
<path class="tk-s25" d="M 620.27 110.16 L 622.7 110.06" fill="none" stroke="#2b2620" stroke-width="2.93" stroke-linecap="round" stroke-linejoin="round" stroke-dasharray="5.36" stroke-dashoffset="5.36" />
<path class="tk-s26" d="M 595.46 107.63 L 601.44 106.01 L 613.38 98.01 L 616.52 97.3 L 618.75 97.91 L 619.86 99.02 L 620.27 100.14 L 620.57 104.79 L 619.96 109.04 L 620.47 113.09 L 620.98 114.31 L 621.79 115.42 L 622.9 116.33 L 622.09 115.62" fill="none" stroke="#2b2620" stroke-width="5.88" stroke-linecap="round" stroke-linejoin="round" stroke-dasharray="52.98" stroke-dashoffset="52.98" />
<path class="tk-s27" d="M 644.98 89.11 L 644.78 90.44 L 642.22 95.46 L 640.27 100.07 L 638.63 104.98 L 638.02 108.16 L 637.81 112.66 L 638.12 113.89 L 639.45 115.63 L 640.58 116.15 L 641.71 116.25 L 645.49 115.43 L 647.13 114.61 L 650.61 111.85 L 652.15 110.21 L 655.33 108.98 L 656.45 105.5 L 658.7 100.38 L 659.93 96.79 L 660.34 93.92 L 661.26 91.77 L 661.47 89.73" fill="none" stroke="#2b2620" stroke-width="6.12" stroke-linecap="round" stroke-linejoin="round" stroke-dasharray="73" stroke-dashoffset="73" />
<path class="tk-s28" d="M 655.33 108.98 L 655.94 109.49 L 655.94 113.59 L 656.55 116.15 L 657.48 117.99 L 659.42 120.34" fill="none" stroke="#2b2620" stroke-width="6.03" stroke-linecap="round" stroke-linejoin="round" stroke-dasharray="18.67" stroke-dashoffset="18.67" />
<path class="tk-s29" d="M 672.87 114.29 L 672.87 113.11 L 675.38 108.24 L 680.41 106.61 L 684.55 102.62 L 689.57 98.63 L 690.9 97.89 L 694.74 96.86 L 695.78 96.86 L 696.96 97.6 L 697.1 99.07 L 695.63 109.12 L 692.52 114.15" fill="none" stroke="#2b2620" stroke-width="6.97" stroke-linecap="round" stroke-linejoin="round" stroke-dasharray="56.55" stroke-dashoffset="56.55" />
<path class="tk-s30" d="M 696.22 108.53 L 698.73 105.72 L 698.29 105.58 L 696.22 108.09 L 696.07 108.97 L 697.84 108.09 L 700.5 107.35 L 705.08 103.36 L 708.78 101 L 711.59 100.4 L 713.06 100.7 L 713.8 101.59 L 714.25 103.51 L 714.25 109.57 L 714.84 113.26 L 715.58 115.48 L 717.05 116.66 L 718.23 116.95 L 720.45 116.81" fill="none" stroke="#2b2620" stroke-width="5.41" stroke-linecap="round" stroke-linejoin="round" stroke-dasharray="53.97" stroke-dashoffset="53.97" />
<path class="tk-s31" d="M 679.37 88.58 L 678.49 92.87 L 674.94 101.73 L 674.35 107.5 L 675.24 108.38" fill="none" stroke="#2b2620" stroke-width="7.26" stroke-linecap="round" stroke-linejoin="round" stroke-dasharray="28.24" stroke-dashoffset="28.24" />
<path class="tk-s32" d="M 732.36 110.15 L 732.53 107.53 L 734.45 103.16 L 738.3 101.76 L 743.19 97.57 L 749.83 92.85 L 752.45 91.8 L 757.17 91.45 L 759.09 91.98 L 760.49 93.38 L 761.01 95.82 L 760.66 99.67 L 756.64 105.78 L 752.27 110.5 L 745.46 115.39 L 741.97 117.31 L 737.95 118.36 L 734.63 117.66" fill="none" stroke="#2b2620" stroke-width="5.95" stroke-linecap="round" stroke-linejoin="round" stroke-dasharray="83.58" stroke-dashoffset="83.58" />
<path class="tk-s33" d="M 749.13 61.05 L 742.49 75.38 L 737.77 87.44 L 734.45 97.57 L 733.93 102.64 L 734.45 103.16" fill="none" stroke="#2b2620" stroke-width="6.92" stroke-linecap="round" stroke-linejoin="round" stroke-dasharray="52.15" stroke-dashoffset="52.15" />
<path class="tk-s34" d="M 776.38 99.33 L 777.2 100.25 L 777.91 100.45 L 781.28 100.76 L 784.24 101.37 L 786.99 101.06 L 788.32 100.66 L 789.95 99.74 L 793.52 96.47 L 794.34 95.15 L 794.85 93.21 L 794.95 91.88 L 794.54 90.25 L 792.61 88.1 L 791.69 87.7 L 789.44 87.39 L 787.81 87.39 L 785.16 88.1 L 783.52 89.02 L 779.34 92.9 L 777.4 95.45 L 776.48 99.23 L 774.95 100.25 L 774.44 101.17 L 773.52 104.43 L 773.11 107.39 L 773.52 112.29 L 774.54 115.25 L 776.79 117.49 L 779.75 118.62 L 781.48 118.82 L 785.46 117.9 L 788.73 115.76 L 791.07 113.51 L 791.99 113.31" fill="none" stroke="#2b2620" stroke-width="5.4" stroke-linecap="round" stroke-linejoin="round" stroke-dasharray="94.02" stroke-dashoffset="94.02" />
<path class="tk-s35" d="M 806.4 116.99 L 806.19 115.45 L 807.95 108.23 L 809.39 104.62 L 810.32 103.59 L 814.55 102.04 L 817.12 99.46 L 819.19 97.81 L 823.72 94.72 L 827.44 92.55 L 831.25 91.21 L 832.8 91.42 L 835.07 92.45 L 836.3 92.55" fill="none" stroke="#2b2620" stroke-width="5.7" stroke-linecap="round" stroke-linejoin="round" stroke-dasharray="49.89" stroke-dashoffset="49.89" />
<path class="tk-s36" d="M 815.27 86.57 L 810.21 97.92 L 809.39 103.07 L 809.9 104" fill="none" stroke="#2b2620" stroke-width="7.27" stroke-linecap="round" stroke-linejoin="round" stroke-dasharray="25.98" stroke-dashoffset="25.98" />
<path class="tk-s37" d="M 840.42 118.63 L 843.84 119.93 L 848.08 120.63 L 852.68 120.05 L 854.92 119.34 L 856.21 118.28 L 855.39 114.27 L 847.61 108.14 L 844.78 105.55 L 843.72 100.72 L 845.02 97.06 L 847.14 94 L 849.97 90.82 L 852.44 88.81 L 855.03 87.16 L 860.81 84.1 L 863.52 83.74 L 865.76 84.33 L 866.35 85.04 L 867.06 87.63 L 866.94 89.52 L 865.99 90.7 L 865.29 92.35 L 863.87 94 L 862.11 93.88" fill="none" stroke="#2b2620" stroke-width="5.61" stroke-linecap="round" stroke-linejoin="round" stroke-dasharray="87.45" stroke-dashoffset="87.45" />
<path class="tk-s38" d="M 874.74 114.49 L 875.18 114.43 L 876.84 113.24 L 877.43 113.24" fill="none" stroke="#2b2620" stroke-width="8.22" stroke-linecap="round" stroke-linejoin="round" stroke-dasharray="11.3" stroke-dashoffset="11.3" />
<path class="tk-s39" d="M 894.54 114.49 L 894.98 114.43 L 896.64 113.24 L 897.23 113.24" fill="none" stroke="#2b2620" stroke-width="8.22" stroke-linecap="round" stroke-linejoin="round" stroke-dasharray="11.3" stroke-dashoffset="11.3" />
<path class="tk-s40" d="M 914.34 114.49 L 914.78 114.43 L 916.44 113.24 L 917.03 113.24" fill="none" stroke="#2b2620" stroke-width="8.22" stroke-linecap="round" stroke-linejoin="round" stroke-dasharray="11.3" stroke-dashoffset="11.3" />
</g>
</svg>