<svg xmlns="http://www.w3.org/2000/svg" viewBox="20.35 47.73 659.09 105.69" width="659.09" height="105.69">
<style>@keyframes tk-d0 { 0% { stroke-dashoffset:139.29 } 3.98%,100% { stroke-dashoffset:0 } } @keyframes tk-d1 { 0%,5.33% { stroke-dashoffset:75.15 } 7.4%,100% { stroke-dashoffset:0 } } @keyframes tk-d2 { 0%,8.75% { stroke-dashoffset:6.74 } 8.78%,100% { stroke-dashoffset:0 } } @keyframes tk-d3 { 0%,9.68% { stroke-dashoffset:73 } 11.68%,100% { stroke-dashoffset:0 } } @keyframes tk-d4 { 0%,13.03% { stroke-dashoffset:18.67 } 13.41%,100% { stroke-dashoffset:0 } } @keyframes tk-d5 { 0%,14.31% { stroke-dashoffset:29.81 } 15.03%,100% { stroke-dashoffset:0 } } @keyframes tk-d6 { 0%,16.38% { stroke-dashoffset:10.88 } 16.52%,100% { stroke-dashoffset:0 } } @keyframes tk-d7 { 0%,15.93% { stroke-dashoffset:67.9 } 17.79%,100% { stroke-dashoffset:0 } } @keyframes tk-d8 { 0%,18.69% { stroke-dashoffset:119.26 } 22.07%,100% { stroke-dashoffset:0 } } @keyframes tk-d9 { 0%,23.42% { stroke-dashoffset:21.23 } 23.86%,100% { stroke-dashoffset:0 } } @keyframes tk-d10 { 0%,24.76% { stroke-dashoffset:29.81 } 25.49%,100% { stroke-dashoffset:0 } } @keyframes tk-d11 { 0%,26.83% { stroke-dashoffset:10.88 } 26.97%,100% { stroke-dashoffset:0 } } @keyframes tk-d12 { 0%,26.39% { stroke-dashoffset:33.44 } 27.17%,100% { stroke-dashoffset:0 } } @keyframes tk-d13 { 0%,28.51% { stroke-dashoffset:5.36 } 28.59%,100% { stroke-dashoffset:0 } } @keyframes tk-d14 { 0%,29.93% { stroke-dashoffset:52.98 } 31.34%,100% { stroke-dashoffset:0 } } @keyframes tk-d15 { 0%,32.24% { stroke-dashoffset:127.88 } 35.9%,100% { stroke-dashoffset:0 } } @keyframes tk-d16 { 0%,37.24% { opacity:0 } 37.64%,100% { opacity:1 } } @keyframes tk-d17 { 0%,38.6% { opacity:0 } 39%,100% { opacity:1 } } @keyframes tk-d18 { 0%,42.02% { stroke-dashoffset:76.51 } 44.14%,100% { stroke-dashoffset:0 } } @keyframes tk-d19 { 0%,45.49% { stroke-dashoffset:38.47 } 46.48%,100% { stroke-dashoffset:0 } } @keyframes tk-d20 { 0%,47.37% { stroke-dashoffset:88.35 } 49.85%,100% { stroke-dashoffset:0 } } @keyframes tk-d21 { 0%,50.75% { stroke-dashoffset:73 } 52.75%,100% { stroke-dashoffset:0 } } @keyframes tk-d22 { 0%,54.1% { stroke-dashoffset:18.67 } 54.48%,100% { stroke-dashoffset:0 } } @keyframes tk-d23 { 0%,55.37% { stroke-dashoffset:49.89 } 56.7%,100% { stroke-dashoffset:0 } } @keyframes tk-d24 { 0%,58.04% { stroke-dashoffset:25.98 } 58.6%,100% { stroke-dashoffset:0 } } @keyframes tk-d25 { 0%,59.95% { stroke-dashoffset:76.07 } 62.06%,100% { stroke-dashoffset:0 } } @keyframes tk-d26 { 0%,63.4% { stroke-dashoffset:57.88 } 64.96%,100% { stroke-dashoffset:0 } } @keyframes tk-d27 { 0%,65.86% { stroke-dashoffset:67.9 } 67.71%,100% { stroke-dashoffset:0 } } @keyframes tk-d28 { 0%,68.61% { stroke-dashoffset:108.88 } 71.69%,100% { stroke-dashoffset:0 } } @keyframes tk-d29 { 0%,72.59% { stroke-dashoffset:33.44 } 73.37%,100% { stroke-dashoffset:0 } } @keyframes tk-d30 { 0%,74.72% { stroke-dashoffset:5.36 } 74.79%,100% { stroke-dashoffset:0 } } @keyframes tk-d31 { 0%,76.14% { stroke-dashoffset:52.98 } 77.55%,100% { stroke-dashoffset:0 } } @keyframes tk-fade { 0%,100% { opacity:1 } } .tk-s0 { animation: tk-d0 3s 1 forwards } .tk-s1 { animation: tk-d1 3s 1 forwards } .tk-s2 { animation: tk-d2 3s 1 forwards } .tk-s3 { animation: tk-d3 3s 1 forwards } .tk-s4 { animation: tk-d4 3s 1 forwards } .tk-s5 { animation: tk-d5 3s 1 forwards } .tk-s6 { animation: tk-d6 3s 1 forwards } .tk-s7 { animation: tk-d7 3s 1 forwards } .tk-s8 { animation: tk-d8 3s 1 forwards } .tk-s9 { animation: tk-d9 3s 1 forwards } .tk-s10 { animation: tk-d10 3s 1 forwards } .tk-s11 { animation: tk-d11 3s 1 forwards } .tk-s12 { animation: tk-d12 3s 1 forwards } .tk-s13 { animation: tk-d13 3s 1 forwards } .tk-s14 { animation: tk-d14 3s 1 forwards } .tk-s15 { animation: tk-d15 3s 1 forwards } .tk-s16 { animation: tk-d16 3s 1 forwards } .tk-s17 { animation: tk-d17 3s 1 forwards } .tk-s18 { animation: tk-d18 3s 1 forwards } .tk-s19 { animation: tk-d19 3s 1 forwards } .tk-s20 { animation: tk-d20 3s 1 forwards } .tk-s21 { animation: tk-d21 3s 1 forwards } .tk-s22 { animation: tk-d22 3s 1 forwards } .tk-s23 { animation: tk-d23 3s 1 forwards } .tk-s24 { animation: tk-d24 3s 1 forwards } .tk-s25 { animation: tk-d25 3s 1 forwards } .tk-s26 { animation: tk-d26 3s 1 forwards } .tk-s27 { animation: tk-d27 3s 1 forwards } .tk-s28 { animation: tk-d28 3s 1 forwards } .tk-s29 { animation: tk-d29 3s 1 forwards } .tk-s30 { animation: tk-d30 3s 1 forwards } .tk-s31 { animation: tk-d31 3s 1 forwards } .tk-grp { animation: tk-fade 3s 1 forwards }</style>
<g class="tk-grp">
<path class="tk-s0" d="M 41.95 92.38 L 42.36 92.79 L 43.99 92.79 L 57.46 90.96 L 59.91 86.67 L 68.27 78.3 L 73.58 69.94 L 73.99 67.69 L 73.17 63.61 L 72.35 62.39 L 69.5 60.14 L 61.13 58.92 L 55.82 59.74 L 52.56 61.98 L 52.15 65.25 L 42.97 86.87 L 42.15 92.18 L 40.11 94.22 L 38.07 99.12 L 31.54 116.87 L 31.54 118.71" fill="none" stroke="#2b2620" stroke-width="6.38" stroke-linecap="round" stroke-linejoin="round" stroke-dasharray="139.29" stroke-dashoffset="139.29" />
<path class="tk-s1" d="M 37.05 123.2 L 41.13 126.26 L 43.79 127.07 L 48.89 127.48 L 52.76 126.87 L 57.66 125.03 L 61.74 122.18 L 65.01 119.32 L 68.07 115.24 L 70.11 111.36 L 70.92 108.1 L 71.33 102.79 L 70.72 99.32 L 66.64 94.63 L 62.35 92.38 L 58.48 91.57 L 57.87 90.55" fill="none" stroke="#2b2620" stroke-width="5.78" stroke-linecap="round" stroke-linejoin="round" stroke-dasharray="75.15" stroke-dashoffset="75.15" />
<path class="tk-s2" d="M 63.78 83.2 L 64.8 82.39" fill="none" stroke="#2b2620" stroke-width="5.43" stroke-linecap="round" stroke-linejoin="round" stroke-dasharray="6.74" stroke-dashoffset="6.74" />
<path class="tk-s3" d="M 93.68 89.11 L 93.48 90.44 L 90.92 95.46 L 88.97 100.07 L 87.33 104.98 L 86.72 108.16 L 86.51 112.66 L 86.82 113.89 L 88.15 115.63 L 89.28 116.15 L 90.41 116.25 L 94.19 115.43 L 95.83 114.61 L 99.31 111.85 L 100.85 110.21 L 104.03 108.98 L 105.15 105.5 L 107.4 100.38 L 108.63 96.79 L 109.04 93.92 L 109.96 91.77 L 110.17 89.73" fill="none" stroke="#2b2620" stroke-width="6.12" stroke-linecap="round" stroke-linejoin="round" stroke-dasharray="73" stroke-dashoffset="73" />
<path class="tk-s4" d="M 104.03 108.98 L 104.64 109.49 L 104.64 113.59 L 105.25 116.15 L 106.18 117.99 L 108.12 120.34" fill="none" stroke="#2b2620" stroke-width="6.03" stroke-linecap="round" stroke-linejoin="round" stroke-dasharray="18.67" stroke-dashoffset="18.67" />
<path class="tk-s5" d="M 127.24 95.64 L 127.53 96.93 L 123.51 107.99 L 121.5 114.75 L 121.35 116.9 L 121.78 118.92" fill="none" stroke="#2b2620" stroke-width="5.45" stroke-linecap="round" stroke-linejoin="round" stroke-dasharray="29.81" stroke-dashoffset="29.81" />
<path class="tk-s6" d="M 133.71 72.79 L 133.71 74.23 L 131.84 76.67" fill="none" stroke="#2b2620" stroke-width="6.37" stroke-linecap="round" stroke-linejoin="round" stroke-dasharray="10.88" stroke-dashoffset="10.88" />
<path class="tk-s7" d="M 157.2 61.35 L 157.56 62.79 L 156.66 65.86 L 147.29 88.03 L 146.39 91.63 L 145.48 93.07 L 144.94 96.14 L 143.86 98.12 L 141.7 104.61 L 139 115.24 L 139.36 120.11" fill="none" stroke="#2b2620" stroke-width="5.67" stroke-linecap="round" stroke-linejoin="round" stroke-dasharray="67.9" stroke-dashoffset="67.9" />
<path class="tk-s8" d="M 193.61 62.6 L 193.61 63.32 L 187.25 77.66 L 183.26 89.64 L 182.54 92.9 L 180.9 94.72 L 181.99 94.17 L 180.72 94.9 L 177.45 93.45 L 171.65 92.18 L 168.56 92.72 L 167.11 93.63 L 164.03 96.9 L 161.12 100.71 L 158.4 106.33 L 157.31 110.69 L 157.31 112.68 L 158.04 115.04 L 159.31 115.95 L 161.3 116.31 L 165.48 115.59 L 168.02 114.32 L 174.55 109.24 L 178.18 108.15 L 179.45 107.24 L 180.36 101.98 L 180.72 94.9" fill="none" stroke="#2b2620" stroke-width="6.18" stroke-linecap="round" stroke-linejoin="round" stroke-dasharray="119.26" stroke-dashoffset="119.26" />
<path class="tk-s9" d="M 178.91 107.78 L 179.27 108.15 L 179.09 115.77 L 180.18 122.12" fill="none" stroke="#2b2620" stroke-width="6.65" stroke-linecap="round" stroke-linejoin="round" stroke-dasharray="21.23" stroke-dashoffset="21.23" />
<path class="tk-s10" d="M 202.14 95.64 L 202.43 96.93 L 198.41 107.99 L 196.4 114.75 L 196.25 116.9 L 196.68 118.92" fill="none" stroke="#2b2620" stroke-width="5.45" stroke-linecap="round" stroke-linejoin="round" stroke-dasharray="29.81" stroke-dashoffset="29.81" />
<path class="tk-s11" d="M 208.61 72.79 L 208.61 74.23 L 206.74 76.67" fill="none" stroke="#2b2620" stroke-width="6.37" stroke-linecap="round" stroke-linejoin="round" stroke-dasharray="10.88" stroke-dashoffset="10.88" />
<path class="tk-s12" d="M 224.22 89.91 L 224.62 91.83 L 224.52 92.95 L 223.81 94.97 L 221.08 100.34 L 219.87 107.42 L 218.04 109.65 L 217.03 111.68 L 217.33 114.11" fill="none" stroke="#2b2620" stroke-width="7.41" stroke-linecap="round" stroke-linejoin="round" stroke-dasharray="33.44" stroke-dashoffset="33.44" />
<path class="tk-s13" d="M 244.57 110.16 L 247 110.06" fill="none" stroke="#2b2620" stroke-width="2.93" stroke-linecap="round" stroke-linejoin="round" stroke-dasharray="5.36" stroke-dashoffset="5.36" />
<path class="tk-s14" d="M 219.76 107.63 L 225.74 106.01 L 237.68 98.01 L 240.82 97.3 L 243.05 97.91 L 244.16 99.02 L 244.57 100.14 L 244.87 104.79 L 244.26 109.04 L 244.77 113.09 L 245.28 114.31 L 246.09 115.42 L 247.2 116.33 L 246.39 115.62" fill="none" stroke="#2b2620" stroke-width="5.88" stroke-linecap="round" stroke-linejoin="round" stroke-dasharray="52.98" stroke-dashoffset="52.98" />
<path class="tk-s15" d="M 255.75 130.7 L 257.52 134.23 L 259.93 137.13 L 260.9 137.77 L 265.08 138.9 L 266.36 138.73 L 267.49 138.09 L 269.74 135.68 L 272.47 129.89 L 277.93 111.57 L 278.42 108.04 L 277.93 105.95 L 280.83 97.91 L 281.63 94.37 L 280.18 89.39 L 278.58 87.78 L 276.33 87.3 L 273.76 87.46 L 271.51 88.59 L 266.68 92.77 L 263.95 96.3 L 261.86 100.48 L 260.74 105.62 L 260.74 107.71 L 261.38 110.61 L 262.67 111.89 L 265.24 112.38 L 267 112.21 L 270.38 110.77 L 274.24 107.55 L 277.93 105.95" fill="none" stroke="#2b2620" stroke-width="5.75" stroke-linecap="round" stroke-linejoin="round" stroke-dasharray="127.88" stroke-dashoffset="127.88" />
<circle class="tk-s16" cx="261.86" cy="111.41" r="2.88" fill="#2b2620" opacity="0" />
<circle class="tk-s17" cx="268.29" cy="137.29" r="2.88" fill="#2b2620" opacity="0" />
<path class="tk-s18" d="M 330.26 138.29 L 333.52 140.08 L 337.1 140.57 L 339.55 140.41 L 343.14 138.62 L 348.03 134.21 L 355.85 121.99 L 356.34 121.01 L 356.83 117.75 L 358.46 116.45 L 359.44 114.49 L 370.52 89.72" fill="none" stroke="#2b2620" stroke-width="5.81" stroke-linecap="round" stroke-linejoin="round" stroke-dasharray="76.51" stroke-dashoffset="76.51" />
<path class="tk-s19" d="M 349.82 87.27 L 349.66 102.92 L 350.96 110.58 L 352.92 114.66 L 354.22 116.12 L 356.01 116.45 L 356.99 117.43" fill="none" stroke="#2b2620" stroke-width="5.36" stroke-linecap="round" stroke-linejoin="round" stroke-dasharray="38.47" stroke-dashoffset="38.47" />
<path class="tk-s20" d="M 379.86 112.76 L 380.16 108.78 L 380.95 106.29 L 383.74 100.71 L 388.02 94.74 L 390.51 92.15 L 393 90.26 L 394.29 89.56 L 398.18 88.87 L 401.66 89.86 L 402.96 91.26 L 403.65 94.94 L 403.45 98.22 L 402.96 100.81 L 402.36 102.5 L 400.57 105.99 L 398.38 109.27 L 394.89 113.36 L 391.71 115.94 L 388.72 117.74 L 387.23 118.23 L 384.54 118.63 L 383.14 118.33 L 381.55 117.34 L 380.36 115.25 L 379.86 112.76" fill="none" stroke="#2b2620" stroke-width="5.68" stroke-linecap="round" stroke-linejoin="round" stroke-dasharray="88.35" stroke-dashoffset="88.35" />
<path class="tk-s21" d="M 424.18 89.11 L 423.98 90.44 L 421.42 95.46 L 419.47 100.07 L 417.83 104.98 L 417.22 108.16 L 417.01 112.66 L 417.32 113.89 L 418.65 115.63 L 419.78 116.15 L 420.91 116.25 L 424.69 115.43 L 426.33 114.61 L 429.81 111.85 L 431.35 110.21 L 434.53 108.98 L 435.65 105.5 L 437.9 100.38 L 439.13 96.79 L 439.54 93.92 L 440.46 91.77 L 440.67 89.73" fill="none" stroke="#2b2620" stroke-width="6.12" stroke-linecap="round" stroke-linejoin="round" stroke-dasharray="73" stroke-dashoffset="73" />
<path class="tk-s22" d="M 434.53 108.98 L 435.14 109.49 L 435.14 113.59 L 435.75 116.15 L 436.68 117.99 L 438.62 120.34" fill="none" stroke="#2b2620" stroke-width="6.03" stroke-linecap="round" stroke-linejoin="round" stroke-dasharray="18.67" stroke-dashoffset="18.67" />
<path class="tk-s23" d="M 453.6 116.99 L 453.39 115.45 L 455.15 108.23 L 456.59 104.62 L 457.52 103.59 L 461.75 102.04 L 464.32 99.46 L 466.39 97.81 L 470.92 94.72 L 474.64 92.55 L 478.45 91.21 L 480 91.42 L 482.27 92.45 L 483.5 92.55" fill="none" stroke="#2b2620" stroke-width="5.7" stroke-linecap="round" stroke-linejoin="round" stroke-dasharray="49.89" stroke-dashoffset="49.89" />
<path class="tk-s24" d="M 462.47 86.57 L 457.41 97.92 L 456.59 103.07 L 457.1 104" fill="none" stroke="#2b2620" stroke-width="7.27" stroke-linecap="round" stroke-linejoin="round" stroke-dasharray="25.98" stroke-dashoffset="25.98" />
<path class="tk-s25" d="M 548.38 84.3 L 548.56 86.62 L 547.49 89.47 L 546.77 94.47 L 547.67 94.11 L 549.81 91.61 L 549.98 92.15 L 546.24 95.54 L 543.92 99.28 L 542.31 102.85 L 540.71 107.49 L 540 112.84 L 538.21 114.98 L 537.68 117.84 L 536.43 121.76 L 535.71 122.83 L 535.54 125.68 L 534.82 126.75 L 533.93 131.93 L 532.68 135.14 L 532.33 138.88 L 531.26 142.63" fill="none" stroke="#2b2620" stroke-width="5.57" stroke-linecap="round" stroke-linejoin="round" stroke-dasharray="76.07" stroke-dashoffset="76.07" />
<path class="tk-s26" d="M 547.49 94.65 L 556.58 92.68 L 560.51 93.04 L 562.47 94.83 L 563.36 97.14 L 563.54 100 L 562.47 103.92 L 559.44 108.02 L 557.65 109.63 L 554.44 111.41 L 552.13 111.95 L 549.27 113.38 L 545.53 114.27 L 540.71 114.09 L 539.82 113.38" fill="none" stroke="#2b2620" stroke-width="6.02" stroke-linecap="round" stroke-linejoin="round" stroke-dasharray="57.88" stroke-dashoffset="57.88" />
<path class="tk-s27" d="M 592.8 61.35 L 593.16 62.79 L 592.26 65.86 L 582.89 88.03 L 581.99 91.63 L 581.08 93.07 L 580.54 96.14 L 579.46 98.12 L 577.3 104.61 L 574.6 115.24 L 574.96 120.11" fill="none" stroke="#2b2620" stroke-width="5.67" stroke-linecap="round" stroke-linejoin="round" stroke-dasharray="67.9" stroke-dashoffset="67.9" />
<path class="tk-s28" d="M 616.85 102.19 L 617.65 98.89 L 618.33 97.19 L 618.67 95.14 L 618.67 94.35 L 617.87 92.42 L 615.26 89.35 L 613.9 88.44 L 611.17 87.76 L 609.47 88.1 L 608.1 88.78 L 605.03 91.39 L 601.62 95.14 L 596.06 103.44 L 592.31 111.28 L 591.85 114.01 L 592.19 115.94 L 592.99 116.51 L 594.69 116.96 L 597.76 116.39 L 600.6 115.03 L 606.17 110.49 L 611.4 105.37 L 612.76 103.67 L 616.62 102.19 L 617.76 103.1 L 618.22 106.73 L 619.92 110.71 L 621.28 112.64 L 622.42 113.89 L 623.9 114.92 L 627.08 115.94" fill="none" stroke="#2b2620" stroke-width="5.96" stroke-linecap="round" stroke-linejoin="round" stroke-dasharray="108.88" stroke-dashoffset="108.88" />
<path class="tk-s29" d="M 645.52 89.91 L 645.92 91.83 L 645.82 92.95 L 645.11 94.97 L 642.38 100.34 L 641.17 107.42 L 639.34 109.65 L 638.33 111.68 L 638.64 114.11" fill="none" stroke="#2b2620" stroke-width="7.41" stroke-linecap="round" stroke-linejoin="round" stroke-dasharray="33.44" stroke-dashoffset="33.44" />
<path class="tk-s30" d="M 665.87 110.16 L 668.3 110.06" fill="none" stroke="#2b2620" stroke-width="2.93" stroke-linecap="round" stroke-linejoin="round" stroke-dasharray="5.36" stroke-dashoffset="5.36" />
<path class="tk-s31" d="M 641.06 107.63 L 647.04 106.01 L 658.98 98.01 L 662.12 97.3 L 664.35 97.91 L 665.46 99.02 L 665.87 100.14 L 666.17 104.79 L 665.56 109.04 L 666.07 113.09 L 666.58 114.31 L 667.39 115.42 L 668.5 116.33 L 667.69 115.62" fill="none" stroke="#2b2620" stroke-width="5.88" stroke-linecap="round" stroke-linejoin="round" stroke-dasharray="52.98" stroke-dashoffset="52.98" />
</g>
</svg>