<svg xmlns="http://www.w3.org/2000/svg" viewBox="19.89 48.68 1002.15 104.74" width="1002.15" height="104.74">
<style>@keyframes tk-d0 { 0% { stroke-dashoffset:152.95 } 3.43%,93% { stroke-dashoffset:0 } 95.1%,100% { stroke-dashoffset:152.95 } } @keyframes tk-d1 { 0%,4.48% { opacity:0 } 4.88%,100% { opacity:1 } } @keyframes tk-d2 { 0%,5.18% { stroke-dashoffset:49.89 } 6.21%,93% { stroke-dashoffset:0 } 95.1%,100% { stroke-dashoffset:49.89 } } @keyframes tk-d3 { 0%,7.26% { stroke-dashoffset:25.98 } 7.7%,93% { stroke-dashoffset:0 } 95.1%,100% { stroke-dashoffset:25.98 } } @keyframes tk-d4 { 0%,8.4% { stroke-dashoffset:94.02 } 10.47%,93% { stroke-dashoffset:0 } 95.1%,100% { stroke-dashoffset:94.02 } } @keyframes tk-d5 { 0%,11.17% { stroke-dashoffset:76.07 } 12.81%,93% { stroke-dashoffset:0 } 95.1%,100% { stroke-dashoffset:76.07 } } @keyframes tk-d6 { 0%,13.86% { stroke-dashoffset:57.88 } 15.07%,93% { stroke-dashoffset:0 } 95.1%,100% { stroke-dashoffset:57.88 } } @keyframes tk-d7 { 0%,15.77% { stroke-dashoffset:108.88 } 18.18%,93% { stroke-dashoffset:0 } 95.1%,100% { stroke-dashoffset:108.88 } } @keyframes tk-d8 { 0%,18.88% { stroke-dashoffset:49.89 } 19.91%,93% { stroke-dashoffset:0 } 95.1%,100% { stroke-dashoffset:49.89 } } @keyframes tk-d9 { 0%,20.96% { stroke-dashoffset:25.98 } 21.39%,93% { stroke-dashoffset:0 } 95.1%,100% { stroke-dashoffset:25.98 } } @keyframes tk-d10 { 0%,22.09% { stroke-dashoffset:29.81 } 22.66%,93% { stroke-dashoffset:0 } 95.1%,100% { stroke-dashoffset:29.81 } } @keyframes tk-d11 { 0%,23.71% { stroke-dashoffset:10.88 } 23.82%,93% { stroke-dashoffset:0 } 95.1%,100% { stroke-dashoffset:10.88 } } @keyframes tk-d12 { 0%,23.36% { stroke-dashoffset:33.44 } 23.97%,93% { stroke-dashoffset:0 } 95.1%,100% { stroke-dashoffset:33.44 } } @keyframes tk-d13 { 0%,25.02% { stroke-dashoffset:5.36 } 25.08%,93% { stroke-dashoffset:0 } 95.1%,100% { stroke-dashoffset:5.36 } } @keyframes tk-d14 { 0%,26.13% { stroke-dashoffset:52.98 } 27.23%,93% { stroke-dashoffset:0 } 95.1%,100% { stroke-dashoffset:52.98 } } @keyframes tk-d15 { 0%,27.93% { stroke-dashoffset:127.88 } 30.78%,93% { stroke-dashoffset:0 } 95.1%,100% { stroke-dashoffset:127.88 } } @keyframes tk-d16 { 0%,31.83% { opacity:0 } 32.23%,100% { opacity:1 } } @keyframes tk-d17 { 0%,32.89% { opacity:0 } 33.29%,100% { opacity:1 } } @keyframes tk-d18 { 0%,34.75% { stroke-dashoffset:76.51 } 36.4%,93% { stroke-dashoffset:0 } 95.1%,100% { stroke-dashoffset:76.51 } } @keyframes tk-d19 { 0%,37.45% { stroke-dashoffset:38.47 } 38.22%,93% { stroke-dashoffset:0 } 95.1%,100% { stroke-dashoffset:38.47 } } @keyframes tk-d20 { 0%,38.93% { stroke-dashoffset:88.35 } 40.86%,93% { stroke-dashoffset:0 } 95.1%,100% { stroke-dashoffset:88.35 } } @keyframes tk-d21 { 0%,41.56% { stroke-dashoffset:73 } 43.12%,93% { stroke-dashoffset:0 } 95.1%,100% { stroke-dashoffset:73 } } @keyframes tk-d22 { 0%,44.17% { stroke-dashoffset:18.67 } 44.47%,93% { stroke-dashoffset:0 } 95.1%,100% { stroke-dashoffset:18.67 } } @keyframes tk-d23 { 0%,45.17% { stroke-dashoffset:49.89 } 46.2%,93% { stroke-dashoffset:0 } 95.1%,100% { stroke-dashoffset:49.89 } } @keyframes tk-d24 { 0%,47.25% { stroke-dashoffset:25.98 } 47.68%,93% { stroke-dashoffset:0 } 95.1%,100% { stroke-dashoffset:25.98 } } @keyframes tk-d25 { 0%,48.73% { stroke-dashoffset:119.26 } 51.37%,93% { stroke-dashoffset:0 } 95.1%,100% { stroke-dashoffset:119.26 } } @keyframes tk-d26 { 0%,52.42% { stroke-dashoffset:21.23 } 52.77%,93% { stroke-dashoffset:0 } 95.1%,100% { stroke-dashoffset:21.23 } } @keyframes tk-d27 { 0%,53.47% { stroke-dashoffset:108.88 } 55.87%,93% { stroke-dashoffset:0 } 95.1%,100% { stroke-dashoffset:108.88 } } @keyframes tk-d28 { 0%,56.57% { stroke-dashoffset:87.45 } 58.48%,93% { stroke-dashoffset:0 } 95.1%,100% { stroke-dashoffset:87.45 } } @keyframes tk-d29 { 0%,59.18% { stroke-dashoffset:120.52 } 61.87%,93% { stroke-dashoffset:0 } 95.1%,100% { stroke-dashoffset:120.52 } } @keyframes tk-d30 { 0%,62.57% { stroke-dashoffset:83.58 } 64.38%,93% { stroke-dashoffset:0 } 95.1%,100% { stroke-dashoffset:83.58 } } @keyframes tk-d31 { 0%,65.43% { stroke-dashoffset:52.15 } 66.49%,93% { stroke-dashoffset:0 } 95.1%,100% { stroke-dashoffset:52.15 } } @keyframes tk-d32 { 0%,67.19% { stroke-dashoffset:88.35 } 69.12%,93% { stroke-dashoffset:0 } 95.1%,100% { stroke-dashoffset:88.35 } } @keyframes tk-d33 { 0%,69.82% { stroke-dashoffset:108.88 } 72.23%,93% { stroke-dashoffset:0 } 95.1%,100% { stroke-dashoffset:108.88 } } @keyframes tk-d34 { 0%,72.93% { stroke-dashoffset:49.89 } 73.96%,93% { stroke-dashoffset:0 } 95.1%,100% { stroke-dashoffset:49.89 } } @keyframes tk-d35 { 0%,75.01% { stroke-dashoffset:25.98 } 75.44%,93% { stroke-dashoffset:0 } 95.1%,100% { stroke-dashoffset:25.98 } } @keyframes tk-d36 { 0%,76.14% { stroke-dashoffset:119.26 } 78.78%,93% { stroke-dashoffset:0 } 95.1%,100% { stroke-dashoffset:119.26 } } @keyframes tk-d37 { 0%,79.83% { stroke-dashoffset:21.23 } 80.18%,93% { stroke-dashoffset:0 } 95.1%,100% { stroke-dashoffset:21.23 } } @keyframes tk-d38 { 0%,80.88% { stroke-dashoffset:11.3 } 80.95%,93% { stroke-dashoffset:0 } 95.1%,100% { stroke-dashoffset:11.3 } } @keyframes tk-d39 { 0%,81.65% { stroke-dashoffset:11.3 } 81.72%,93% { stroke-dashoffset:0 } 95.1%,100% { stroke-dashoffset:11.3 } } @keyframes tk-d40 { 0%,82.42% { stroke-dashoffset:11.3 } 82.49%,93% { stroke-dashoffset:0 } 95.1%,100% { stroke-dashoffset:11.3 } } @keyframes tk-fade { 0%,93% { opacity:1 } 95.1%,100% { opacity:0 } } .tk-s0 { animation: tk-d0 3.6s infinite } .tk-s1 { animation: tk-d1 3.6s infinite } .tk-s2 { animation: tk-d2 3.6s infinite } .tk-s3 { animation: tk-d3 3.6s infinite } .tk-s4 { animation: tk-d4 3.6s infinite } .tk-s5 { animation: tk-d5 3.6s infinite } .tk-s6 { animation: tk-d6 3.6s infinite } .tk-s7 { animation: tk-d7 3.6s infinite } .tk-s8 { animation: tk-d8 3.6s infinite } .tk-s9 { animation: tk-d9 3.6s infinite } .tk-s10 { animation: tk-d10 3.6s infinite } .tk-s11 { animation: tk-d11 3.6s infinite } .tk-s12 { animation: tk-d12 3.6s infinite } .tk-s13 { animation: tk-d13 3.6s infinite } .tk-s14 { animation: tk-d14 3.6s infinite } .tk-s15 { animation: tk-d15 3.6s infinite } .tk-s16 { animation: tk-d16 3.6s infinite } .tk-s17 { animation: tk-d17 3.6s infinite } .tk-s18 { animation: tk-d18 3.6s infinite } .tk-s19 { animation: tk-d19 3.6s infinite } .tk-s20 { animation: tk-d20 3.6s infinite } .tk-s21 { animation: tk-d21 3.6s infinite } .tk-s22 { animation: tk-d22 3.6s infinite } .tk-s23 { animation: tk-d23 3.6s infinite } .tk-s24 { animation: tk-d24 3.6s infinite } .tk-s25 { animation: tk-d25 3.6s infinite } .tk-s26 { animation: tk-d26 3.6s infinite } .tk-s27 { animation: tk-d27 3.6s infinite } .tk-s28 { animation: tk-d28 3.6s infinite } .tk-s29 { animation: tk-d29 3.6s infinite } .tk-s30 { animation: tk-d30 3.6s infinite } .tk-s31 { animation: tk-d31 3.6s infinite } .tk-s32 { animation: tk-d32 3.6s infinite } .tk-s33 { animation: tk-d33 3.6s infinite } .tk-s34 { animation: tk-d34 3.6s infinite } .tk-s35 { animation: tk-d35 3.6s infinite } .tk-s36 { animation: tk-d36 3.6s infinite } .tk-s37 { animation: tk-d37 3.6s infinite } .tk-s38 { animation: tk-d38 3.6s infinite } .tk-s39 { animation: tk-d39 3.6s infinite } .tk-s40 { animation: tk-d40 3.6s infinite } .tk-grp { animation: tk-fade 3.6s infinite }</style>
<g class="tk-grp">
<path class="tk-s0" d="M 39.02 100.07 L 39.8 99.09 L 40.78 92.45 L 42.93 87.36 L 46.45 75.83 L 50.36 66.83 L 50.75 63.9 L 53.88 60.38 L 55.25 59.79 L 60.92 59.79 L 65.22 60.58 L 69.52 62.92 L 72.65 65.85 L 73.82 67.81 L 75 72.89 L 74.6 76.41 L 72.45 81.1 L 69.33 86.19 L 64.44 91.47 L 60.92 94.21 L 50.16 98.7 L 46.06 99.29 L 39.8 99.29 L 38.63 100.27 L 36.67 104.18 L 35.7 108.87 L 31 123.34 L 31.2 124.51" fill="none" stroke="#2b2620" stroke-width="6.23" stroke-linecap="round" stroke-linejoin="round" stroke-dasharray="152.95" stroke-dashoffset="152.95" />
<circle class="tk-s1" cx="66.39" cy="60.97" r="3.12" fill="#2b2620" opacity="0" />
<path class="tk-s2" d="M 80.5 116.99 L 80.29 115.45 L 82.05 108.23 L 83.49 104.62 L 84.42 103.59 L 88.65 102.04 L 91.22 99.46 L 93.29 97.81 L 97.82 94.72 L 101.54 92.55 L 105.35 91.21 L 106.9 91.42 L 109.17 92.45 L 110.4 92.55" fill="none" stroke="#2b2620" stroke-width="5.7" stroke-linecap="round" stroke-linejoin="round" stroke-dasharray="49.89" stroke-dashoffset="49.89" />
<path class="tk-s3" d="M 89.37 86.57 L 84.31 97.92 L 83.49 103.07 L 84 104" fill="none" stroke="#2b2620" stroke-width="7.27" stroke-linecap="round" stroke-linejoin="round" stroke-dasharray="25.98" stroke-dashoffset="25.98" />
<path class="tk-s4" d="M 118.98 99.33 L 119.8 100.25 L 120.51 100.45 L 123.88 100.76 L 126.84 101.37 L 129.59 101.06 L 130.92 100.66 L 132.55 99.74 L 136.12 96.47 L 136.94 95.15 L 137.45 93.21 L 137.55 91.88 L 137.14 90.25 L 135.21 88.1 L 134.29 87.7 L 132.04 87.39 L 130.41 87.39 L 127.76 88.1 L 126.12 89.02 L 121.94 92.9 L 120 95.45 L 119.08 99.23 L 117.55 100.25 L 117.04 101.17 L 116.12 104.43 L 115.71 107.39 L 116.12 112.29 L 117.14 115.25 L 119.39 117.49 L 122.35 118.62 L 124.08 118.82 L 128.06 117.9 L 131.33 115.76 L 133.67 113.51 L 134.59 113.31" fill="none" stroke="#2b2620" stroke-width="5.4" stroke-linecap="round" stroke-linejoin="round" stroke-dasharray="94.02" stroke-dashoffset="94.02" />
<path class="tk-s5" d="M 157.78 84.3 L 157.96 86.62 L 156.89 89.47 L 156.17 94.47 L 157.07 94.11 L 159.21 91.61 L 159.38 92.15 L 155.64 95.54 L 153.32 99.28 L 151.71 102.85 L 150.11 107.49 L 149.4 112.84 L 147.61 114.98 L 147.08 117.84 L 145.83 121.76 L 145.11 122.83 L 144.94 125.68 L 144.22 126.75 L 143.33 131.93 L 142.08 135.14 L 141.73 138.88 L 140.66 142.63" fill="none" stroke="#2b2620" stroke-width="5.57" stroke-linecap="round" stroke-linejoin="round" stroke-dasharray="76.07" stroke-dashoffset="76.07" />
<path class="tk-s6" d="M 156.89 94.65 L 165.98 92.68 L 169.91 93.04 L 171.87 94.83 L 172.76 97.14 L 172.94 100 L 171.87 103.92 L 168.84 108.02 L 167.05 109.63 L 163.84 111.41 L 161.53 111.95 L 158.67 113.38 L 154.93 114.27 L 150.11 114.09 L 149.22 113.38" fill="none" stroke="#2b2620" stroke-width="6.02" stroke-linecap="round" stroke-linejoin="round" stroke-dasharray="57.88" stroke-dashoffset="57.88" />
<path class="tk-s7" d="M 209.35 102.19 L 210.15 98.89 L 210.83 97.19 L 211.17 95.14 L 211.17 94.35 L 210.37 92.42 L 207.76 89.35 L 206.4 88.44 L 203.67 87.76 L 201.97 88.1 L 200.6 88.78 L 197.53 91.39 L 194.12 95.14 L 188.56 103.44 L 184.81 111.28 L 184.35 114.01 L 184.69 115.94 L 185.49 116.51 L 187.19 116.96 L 190.26 116.39 L 193.1 115.03 L 198.67 110.49 L 203.9 105.37 L 205.26 103.67 L 209.12 102.19 L 210.26 103.1 L 210.72 106.73 L 212.42 110.71 L 213.78 112.64 L 214.92 113.89 L 216.4 114.92 L 219.58 115.94" fill="none" stroke="#2b2620" stroke-width="5.96" stroke-linecap="round" stroke-linejoin="round" stroke-dasharray="108.88" stroke-dashoffset="108.88" />
<path class="tk-s8" d="M 230.5 116.99 L 230.29 115.45 L 232.05 108.23 L 233.49 104.62 L 234.42 103.59 L 238.65 102.04 L 241.22 99.46 L 243.29 97.81 L 247.82 94.72 L 251.54 92.55 L 255.35 91.21 L 256.9 91.42 L 259.17 92.45 L 260.4 92.55" fill="none" stroke="#2b2620" stroke-width="5.7" stroke-linecap="round" stroke-linejoin="round" stroke-dasharray="49.89" stroke-dashoffset="49.89" />
<path class="tk-s9" d="M 239.37 86.57 L 234.31 97.92 L 233.49 103.07 L 234 104" fill="none" stroke="#2b2620" stroke-width="7.27" stroke-linecap="round" stroke-linejoin="round" stroke-dasharray="25.98" stroke-dashoffset="25.98" />
<path class="tk-s10" d="M 270.64 95.64 L 270.93 96.93 L 266.91 107.99 L 264.9 114.75 L 264.75 116.9 L 265.18 118.92" fill="none" stroke="#2b2620" stroke-width="5.45" stroke-linecap="round" stroke-linejoin="round" stroke-dasharray="29.81" stroke-dashoffset="29.81" />
<path class="tk-s11" d="M 277.11 72.79 L 277.11 74.23 L 275.24 76.67" fill="none" stroke="#2b2620" stroke-width="6.37" stroke-linecap="round" stroke-linejoin="round" stroke-dasharray="10.88" stroke-dashoffset="10.88" />
<path class="tk-s12" d="M 292.72 89.91 L 293.12 91.83 L 293.02 92.95 L 292.31 94.97 L 289.58 100.34 L 288.37 107.42 L 286.54 109.65 L 285.53 111.68 L 285.84 114.11" fill="none" stroke="#2b2620" stroke-width="7.41" stroke-linecap="round" stroke-linejoin="round" stroke-dasharray="33.44" stroke-dashoffset="33.44" />
<path class="tk-s13" d="M 313.07 110.16 L 315.5 110.06" fill="none" stroke="#2b2620" stroke-width="2.93" stroke-linecap="round" stroke-linejoin="round" stroke-dasharray="5.36" stroke-dashoffset="5.36" />
<path class="tk-s14" d="M 288.26 107.63 L 294.24 106.01 L 306.18 98.01 L 309.32 97.3 L 311.55 97.91 L 312.66 99.02 L 313.07 100.14 L 313.37 104.79 L 312.76 109.04 L 313.27 113.09 L 313.78 114.31 L 314.59 115.42 L 315.7 116.33 L 314.89 115.62" fill="none" stroke="#2b2620" stroke-width="5.88" stroke-linecap="round" stroke-linejoin="round" stroke-dasharray="52.98" stroke-dashoffset="52.98" />
<path class="tk-s15" d="M 324.25 130.7 L 326.02 134.23 L 328.43 137.13 L 329.4 137.77 L 333.58 138.9 L 334.86 138.73 L 335.99 138.09 L 338.24 135.68 L 340.97 129.89 L 346.43 111.57 L 346.92 108.04 L 346.43 105.95 L 349.33 97.91 L 350.13 94.37 L 348.68 89.39 L 347.08 87.78 L 344.83 87.3 L 342.26 87.46 L 340.01 88.59 L 335.18 92.77 L 332.45 96.3 L 330.36 100.48 L 329.24 105.62 L 329.24 107.71 L 329.88 110.61 L 331.17 111.89 L 333.74 112.38 L 335.5 112.21 L 338.88 110.77 L 342.74 107.55 L 346.43 105.95" fill="none" stroke="#2b2620" stroke-width="5.75" stroke-linecap="round" stroke-linejoin="round" stroke-dasharray="127.88" stroke-dashoffset="127.88" />
<circle class="tk-s16" cx="330.36" cy="111.41" r="2.88" fill="#2b2620" opacity="0" />
<circle class="tk-s17" cx="336.79" cy="137.29" r="2.88" fill="#2b2620" opacity="0" />
<path class="tk-s18" d="M 398.76 138.29 L 402.02 140.08 L 405.6 140.57 L 408.05 140.41 L 411.64 138.62 L 416.53 134.21 L 424.35 121.99 L 424.84 121.01 L 425.33 117.75 L 426.96 116.45 L 427.94 114.49 L 439.02 89.72" fill="none" stroke="#2b2620" stroke-width="5.81" stroke-linecap="round" stroke-linejoin="round" stroke-dasharray="76.51" stroke-dashoffset="76.51" />
<path class="tk-s19" d="M 418.32 87.27 L 418.16 102.92 L 419.46 110.58 L 421.42 114.66 L 422.72 116.12 L 424.51 116.45 L 425.49 117.43" fill="none" stroke="#2b2620" stroke-width="5.36" stroke-linecap="round" stroke-linejoin="round" stroke-dasharray="38.47" stroke-dashoffset="38.47" />
<path class="tk-s20" d="M 448.36 112.76 L 448.66 108.78 L 449.45 106.29 L 452.24 100.71 L 456.52 94.74 L 459.01 92.15 L 461.5 90.26 L 462.79 89.56 L 466.68 88.87 L 470.16 89.86 L 471.46 91.26 L 472.15 94.94 L 471.95 98.22 L 471.46 100.81 L 470.86 102.5 L 469.07 105.99 L 466.88 109.27 L 463.39 113.36 L 460.21 115.94 L 457.22 117.74 L 455.73 118.23 L 453.04 118.63 L 451.64 118.33 L 450.05 117.34 L 448.86 115.25 L 448.36 112.76" fill="none" stroke="#2b2620" stroke-width="5.68" stroke-linecap="round" stroke-linejoin="round" stroke-dasharray="88.35" stroke-dashoffset="88.35" />
<path class="tk-s21" d="M 492.68 89.11 L 492.48 90.44 L 489.92 95.46 L 487.97 100.07 L 486.33 104.98 L 485.72 108.16 L 485.51 112.66 L 485.82 113.89 L 487.15 115.63 L 488.28 116.15 L 489.41 116.25 L 493.19 115.43 L 494.83 114.61 L 498.31 111.85 L 499.85 110.21 L 503.03 108.98 L 504.15 105.5 L 506.4 100.38 L 507.63 96.79 L 508.04 93.92 L 508.96 91.77 L 509.17 89.73" fill="none" stroke="#2b2620" stroke-width="6.12" stroke-linecap="round" stroke-linejoin="round" stroke-dasharray="73" stroke-dashoffset="73" />
<path class="tk-s22" d="M 503.03 108.98 L 503.64 109.49 L 503.64 113.59 L 504.25 116.15 L 505.18 117.99 L 507.12 120.34" fill="none" stroke="#2b2620" stroke-width="6.03" stroke-linecap="round" stroke-linejoin="round" stroke-dasharray="18.67" stroke-dashoffset="18.67" />
<path class="tk-s23" d="M 522.1 116.99 L 521.89 115.45 L 523.65 108.23 L 525.09 104.62 L 526.02 103.59 L 530.25 102.04 L 532.82 99.46 L 534.89 97.81 L 539.42 94.72 L 543.14 92.55 L 546.95 91.21 L 548.5 91.42 L 550.77 92.45 L 552 92.55" fill="none" stroke="#2b2620" stroke-width="5.7" stroke-linecap="round" stroke-linejoin="round" stroke-dasharray="49.89" stroke-dashoffset="49.89" />
<path class="tk-s24" d="M 530.97 86.57 L 525.91 97.92 L 525.09 103.07 L 525.6 104" fill="none" stroke="#2b2620" stroke-width="7.27" stroke-linecap="round" stroke-linejoin="round" stroke-dasharray="25.98" stroke-dashoffset="25.98" />
<path class="tk-s25" d="M 643.01 62.6 L 643.01 63.32 L 636.65 77.66 L 632.66 89.64 L 631.94 92.9 L 630.3 94.72 L 631.39 94.17 L 630.12 94.9 L 626.85 93.45 L 621.05 92.18 L 617.96 92.72 L 616.51 93.63 L 613.42 96.9 L 610.52 100.71 L 607.8 106.33 L 606.71 110.69 L 606.71 112.68 L 607.44 115.04 L 608.71 115.95 L 610.7 116.31 L 614.88 115.59 L 617.42 114.32 L 623.95 109.24 L 627.58 108.15 L 628.85 107.24 L 629.76 101.98 L 630.12 94.9" fill="none" stroke="#2b2620" stroke-width="6.18" stroke-linecap="round" stroke-linejoin="round" stroke-dasharray="119.26" stroke-dashoffset="119.26" />
<path class="tk-s26" d="M 628.31 107.78 L 628.67 108.15 L 628.49 115.77 L 629.58 122.12" fill="none" stroke="#2b2620" stroke-width="6.65" stroke-linecap="round" stroke-linejoin="round" stroke-dasharray="21.23" stroke-dashoffset="21.23" />
<path class="tk-s27" d="M 669.95 102.19 L 670.75 98.89 L 671.43 97.19 L 671.77 95.14 L 671.77 94.35 L 670.97 92.42 L 668.36 89.35 L 667 88.44 L 664.27 87.76 L 662.57 88.1 L 661.2 88.78 L 658.13 91.39 L 654.72 95.14 L 649.16 103.44 L 645.41 111.28 L 644.95 114.01 L 645.29 115.94 L 646.09 116.51 L 647.79 116.96 L 650.86 116.39 L 653.7 115.03 L 659.27 110.49 L 664.5 105.37 L 665.86 103.67 L 669.72 102.19 L 670.86 103.1 L 671.32 106.73 L 673.02 110.71 L 674.38 112.64 L 675.52 113.89 L 677 114.92 L 680.18 115.94" fill="none" stroke="#2b2620" stroke-width="5.96" stroke-linecap="round" stroke-linejoin="round" stroke-dasharray="108.88" stroke-dashoffset="108.88" />
<path class="tk-s28" d="M 689.12 118.63 L 692.54 119.93 L 696.78 120.63 L 701.38 120.05 L 703.62 119.34 L 704.91 118.28 L 704.09 114.27 L 696.31 108.14 L 693.48 105.55 L 692.42 100.72 L 693.72 97.06 L 695.84 94 L 698.67 90.82 L 701.14 88.81 L 703.73 87.16 L 709.51 84.1 L 712.22 83.74 L 714.46 84.33 L 715.05 85.04 L 715.76 87.63 L 715.64 89.52 L 714.69 90.7 L 713.99 92.35 L 712.57 94 L 710.81 93.88" fill="none" stroke="#2b2620" stroke-width="5.61" stroke-linecap="round" stroke-linejoin="round" stroke-dasharray="87.45" stroke-dashoffset="87.45" />
<path class="tk-s29" d="M 740.44 60.05 L 740.61 63.02 L 738.79 67.15 L 727.57 97.86 L 725.75 104.29 L 725.09 110.24 L 724.1 113.21 L 725.59 110.73 L 729.05 109.41 L 734.17 104.29 L 740.61 99.01 L 746.55 95.38 L 750.35 94.88 L 752.33 96.04 L 753.16 99.18 L 752.17 109.25 L 752.66 112.38 L 754.81 113.71 L 758.61 113.87 L 759.27 113.54" fill="none" stroke="#2b2620" stroke-width="5.68" stroke-linecap="round" stroke-linejoin="round" stroke-dasharray="120.52" stroke-dashoffset="120.52" />
<path class="tk-s30" d="M 773.56 110.15 L 773.73 107.53 L 775.65 103.16 L 779.5 101.76 L 784.39 97.57 L 791.03 92.85 L 793.65 91.8 L 798.37 91.45 L 800.29 91.98 L 801.69 93.38 L 802.21 95.82 L 801.86 99.67 L 797.84 105.78 L 793.47 110.5 L 786.66 115.39 L 783.17 117.31 L 779.15 118.36 L 775.83 117.66" fill="none" stroke="#2b2620" stroke-width="5.95" stroke-linecap="round" stroke-linejoin="round" stroke-dasharray="83.58" stroke-dashoffset="83.58" />
<path class="tk-s31" d="M 790.33 61.05 L 783.69 75.38 L 778.97 87.44 L 775.65 97.57 L 775.13 102.64 L 775.65 103.16" fill="none" stroke="#2b2620" stroke-width="6.92" stroke-linecap="round" stroke-linejoin="round" stroke-dasharray="52.15" stroke-dashoffset="52.15" />
<path class="tk-s32" d="M 813.66 112.76 L 813.96 108.78 L 814.75 106.29 L 817.54 100.71 L 821.82 94.74 L 824.31 92.15 L 826.8 90.26 L 828.09 89.56 L 831.98 88.87 L 835.46 89.86 L 836.76 91.26 L 837.45 94.94 L 837.25 98.22 L 836.76 100.81 L 836.16 102.5 L 834.37 105.99 L 832.18 109.27 L 828.69 113.36 L 825.51 115.94 L 822.52 117.74 L 821.03 118.23 L 818.34 118.63 L 816.94 118.33 L 815.35 117.34 L 814.16 115.25 L 813.66 112.76" fill="none" stroke="#2b2620" stroke-width="5.68" stroke-linecap="round" stroke-linejoin="round" stroke-dasharray="88.35" stroke-dashoffset="88.35" />
<path class="tk-s33" d="M 872.95 102.19 L 873.75 98.89 L 874.43 97.19 L 874.77 95.14 L 874.77 94.35 L 873.97 92.42 L 871.36 89.35 L 870 88.44 L 867.27 87.76 L 865.57 88.1 L 864.2 88.78 L 861.13 91.39 L 857.72 95.14 L 852.16 103.44 L 848.41 111.28 L 847.95 114.01 L 848.29 115.94 L 849.09 116.51 L 850.79 116.96 L 853.86 116.39 L 856.7 115.03 L 862.27 110.49 L 867.5 105.37 L 868.86 103.67 L 872.72 102.19 L 873.86 103.1 L 874.32 106.73 L 876.02 110.71 L 877.38 112.64 L 878.52 113.89 L 880 114.92 L 883.18 115.94" fill="none" stroke="#2b2620" stroke-width="5.96" stroke-linecap="round" stroke-linejoin="round" stroke-dasharray="108.88" stroke-dashoffset="108.88" />
<path class="tk-s34" d="M 894.1 116.99 L 893.89 115.45 L 895.65 108.23 L 897.09 104.62 L 898.02 103.59 L 902.25 102.04 L 904.82 99.46 L 906.89 97.81 L 911.42 94.72 L 915.14 92.55 L 918.95 91.21 L 920.5 91.42 L 922.77 92.45 L 924 92.55" fill="none" stroke="#2b2620" stroke-width="5.7" stroke-linecap="round" stroke-linejoin="round" stroke-dasharray="49.89" stroke-dashoffset="49.89" />
<path class="tk-s35" d="M 902.97 86.57 L 897.91 97.92 L 897.09 103.07 L 897.6 104" fill="none" stroke="#2b2620" stroke-width="7.27" stroke-linecap="round" stroke-linejoin="round" stroke-dasharray="25.98" stroke-dashoffset="25.98" />
<path class="tk-s36" d="M 965.01 62.6 L 965.01 63.32 L 958.65 77.66 L 954.66 89.64 L 953.94 92.9 L 952.3 94.72 L 953.39 94.17 L 952.12 94.9 L 948.85 93.45 L 943.05 92.18 L 939.96 92.72 L 938.51 93.63 L 935.42 96.9 L 932.52 100.71 L 929.8 106.33 L 928.71 110.69 L 928.71 112.68 L 929.44 115.04 L 930.71 115.95 L 932.7 116.31 L 936.88 115.59 L 939.42 114.32 L 945.95 109.24 L 949.58 108.15 L 950.85 107.24 L 951.76 101.98 L 952.12 94.9" fill="none" stroke="#2b2620" stroke-width="6.18" stroke-linecap="round" stroke-linejoin="round" stroke-dasharray="119.26" stroke-dashoffset="119.26" />
<path class="tk-s37" d="M 950.31 107.78 L 950.67 108.15 L 950.49 115.77 L 951.58 122.12" fill="none" stroke="#2b2620" stroke-width="6.65" stroke-linecap="round" stroke-linejoin="round" stroke-dasharray="21.23" stroke-dashoffset="21.23" />
<path class="tk-s38" d="M 967.64 114.49 L 968.08 114.43 L 969.74 113.24 L 970.33 113.24" fill="none" stroke="#2b2620" stroke-width="8.22" stroke-linecap="round" stroke-linejoin="round" stroke-dasharray="11.3" stroke-dashoffset="11.3" />
<path class="tk-s39" d="M 987.44 114.49 L 987.88 114.43 L 989.54 113.24 L 990.13 113.24" fill="none" stroke="#2b2620" stroke-width="8.22" stroke-linecap="round" stroke-linejoin="round" stroke-dasharray="11.3" stroke-dashoffset="11.3" />
<path class="tk-s40" d="M 1007.24 114.49 L 1007.68 114.43 L 1009.34 113.24 L 1009.93 113.24" fill="none" stroke="#2b2620" stroke-width="8.22" stroke-linecap="round" stroke-linejoin="round" stroke-dasharray="11.3" stroke-dashoffset="11.3" />
</g>
</svg>